<svg xmlns="http://www.w3.org/2000/svg" xmlns:xlink="http://www.w3.org/1999/xlink" viewBox="0 0 286.26 364.4"><defs><style>.cls-1,.cls-3{fill:#455a64;}.cls-1,.cls-2,.cls-4,.cls-6,.cls-7,.cls-8,.cls-9{stroke:#2a2c2b;}.cls-1,.cls-11,.cls-2,.cls-4,.cls-5,.cls-6,.cls-7,.cls-8,.cls-9{stroke-miterlimit:10;}.cls-1,.cls-2,.cls-4,.cls-5,.cls-9{stroke-width:3px;}.cls-2{fill:#cddc39;}.cls-11,.cls-4{fill:none;}.cls-5{stroke:#202020;}.cls-6{fill:#aa8b39;}.cls-6,.cls-7,.cls-8{stroke-width:2px;}.cls-7{fill:#743f44;}.cls-8{fill:#5c9251;}.cls-9{fill:#bdbdbd;}.cls-10{fill:url(#linear-gradient);}.cls-11{stroke:#607d8b;}.cls-12{fill:url(#linear-gradient-2);}</style><linearGradient id="linear-gradient" x1="178.55" y1="188.26" x2="178.55" y2="182.39" gradientTransform="matrix(1, 0, 0, -1, 0, 366.01)" gradientUnits="userSpaceOnUse"><stop offset="0" stop-color="#d4d5d5"/><stop offset="0.4" stop-color="#777878" stop-opacity="0.42"/><stop offset="0.71" stop-color="#333" stop-opacity="0"/></linearGradient><linearGradient id="linear-gradient-2" x1="101.05" y1="194.26" x2="101.05" y2="187.26" xlink:href="#linear-gradient"/></defs><title>logoHapp</title><g id="Layer_2" data-name="Layer 2"><g id="Layer_1-2" data-name="Layer 1"><path class="cls-1" d="M213.26,350.67s-1-6.66-5.65-10.91c-2.78-2.52,10.18-8.1,4.16-14.39s-6.79-9.2-1-13.25,13.94-105.44,13.94-105.44L58.29,193.37S51.85,253,47.44,269.69c-5.5,20.79.46,53.83.46,53.83l-1.74,19.65.2,8.51c-.19,10.2,37.25,13.83,82.31,9.29C174.07,356.4,212.52,359.92,213.26,350.67Z"/><path class="cls-2" d="M219.68,226.42a1054.32,1054.32,0,0,0-163.4-13,1.54,1.54,0,0,1-1.41-1.66h0s-6-33.3,1.87-28.47c9.82,6,162.47,23.38,166.82,12s0,23,0,23C223.49,219.09,224.55,226.24,219.68,226.42Z"/><path class="cls-2" d="M150,222.78c-7-7.75-14.41-8-22.09-1.76a1.44,1.44,0,0,1-1.43-1.43c-3.82-8-2.51-14.42,1.59-20l25.16,2c1.25,7.82,1.19,14.71-1.59,20A1.44,1.44,0,0,1,150,222.78Z"/><path class="cls-3" d="M284.64,179.36c4.69,20.46-137.09,24.89-144.09,24.89-10.44,0-142.06-26.73-139-47.5,3-20.5,66.18-28.64,144.57-26.57S282.55,170.24,284.64,179.36ZM145.55,149.24c-47.62-3.8-95.12,1.32-88.19,12,7.19,11,38.57,15.24,86.19,19s79,4,86.26-5.27C237.65,165,193.17,153,145.55,149.24Z"/><path class="cls-4" d="M284.64,179.36c4.69,20.46-137.09,24.89-144.09,24.89-10.44,0-142.06-26.73-139-47.5,3-20.5,66.18-28.64,144.57-26.57S282.55,170.24,284.64,179.36ZM145.55,149.24c-47.62-3.8-95.12,1.32-88.19,12,7.19,11,38.57,15.24,86.19,19s79,4,86.26-5.27C237.65,165,193.17,153,145.55,149.24Z"/><path class="cls-5" d="M229.51,171.82c-.87,10.86-38.7,10.2-86,6.43s-86-9.24-85.15-20.09,39.87-16.6,87.12-12.83S230.37,161,229.51,171.82Z"/><rect class="cls-2" x="64.46" y="285.12" width="52.22" height="52.22" rx="7" ry="7" transform="translate(-233.29 324.66) rotate(-76.15)"/><polygon class="cls-6" points="79.77 316.16 80.14 311.92 83.27 308.03 91.52 302.6 105.75 293.03 99.02 308.04 94.04 317.48 90.74 322 86.43 322 79.77 316.16"/><polyline class="cls-7" points="90.74 322 89.19 317.35 87.9 315.54"/><polyline class="cls-7" points="80.4 311.66 83.76 309.85 87.64 312.17"/><polyline class="cls-7" points="94.91 315.83 92.81 312.17 91 311.92 88.93 309.85 87.64 309.59"/><polygon class="cls-8" points="83.9 318.24 85.64 322.68 87.8 324.97 86.52 327.7 83.29 327.06 83.9 318.24"/><polygon class="cls-8" points="82.73 317.82 81.51 326.79 79 330.74 75.45 328.56 79.13 325.21 78.57 323.43 82.73 317.82"/><polygon class="cls-8" points="82.64 317.18 77.35 321.75 74.81 321.3 72.6 317.48 82.64 317.18"/><line class="cls-4" x1="87.55" y1="289.24" x2="89.55" y2="277.24"/><line class="cls-4" x1="98.55" y1="280.24" x2="102.55" y2="291.24"/><line class="cls-4" x1="124.55" y1="311.24" x2="114.55" y2="307.24"/><line class="cls-4" x1="116.55" y1="330.24" x2="109.55" y2="323.24"/><line class="cls-4" x1="69.55" y1="305.24" x2="62.55" y2="294.24"/><line class="cls-4" x1="66.48" y1="323.15" x2="57.63" y2="330.34"/><line class="cls-4" x1="62.55" y1="332.24" x2="60.55" y2="320.24"/><line class="cls-4" x1="100.55" y1="333.24" x2="91.55" y2="344.24"/><path class="cls-9" d="M94.55,173.24s-29.5-67.32-29.5-79S78.32,34.21,83.62,24,95.68-1.47,98.21,2c0,0,13.26,14.64,19.89,27.81s-7.55,138.43-9.55,144.43C106.93,179.11,94.55,173.24,94.55,173.24Z"/><path class="cls-9" d="M171.55,180.24s-3-33.31-3-40,6.74-45.83,14.83-49.88c-2.7,0,9.44,0,9.44-2.7S178,66.05,182,60.66s6.74-13.48,6.74-13.48,13.65-26,20.78-25.94,10.43,38.45,12,45c2,8.49,2.27,33.51.92,41.6s-4,28.31-8.09,33.7-12.13,18.87-16.18,21.57-13.66,17.13-13.66,17.13Z"/><rect class="cls-10" x="173.05" y="177.74" width="11" height="5.87"/><path class="cls-11" d="M80.55,141.24c-13.06,18.48,15.4,14.91,9,0"/><rect class="cls-12" x="95.05" y="171.74" width="12" height="7"/></g></g></svg>